<svg xmlns="http://www.w3.org/2000/svg" viewBox="0 0 40 37.143"><defs><style>.a{fill:#891225}</style></defs><path class="a" d="M35.425 3.038h-2.451v-2.1a.915.915 0 1 0-1.83 0v2.1H9.352v-2.1a.915.915 0 1 0-1.83 0v2.1H4.575A4.627 4.627 0 0 0 0 7.704v24.773a4.627 4.627 0 0 0 4.575 4.666h30.85A4.627 4.627 0 0 0 40 32.477V7.704a4.627 4.627 0 0 0-4.575-4.666zm2.745 29.439a2.776 2.776 0 0 1-2.745 2.8H4.575a2.776 2.776 0 0 1-2.745-2.8V7.704a2.776 2.776 0 0 1 2.745-2.8h2.947v1.6a.915.915 0 1 0 1.83 0v-1.6h21.792v1.6a.915.915 0 1 0 1.83 0v-1.6h2.451a2.776 2.776 0 0 1 2.745 2.8zm0 0"/><path class="a" d="M10.151 15.787h10.705a.653.653 0 1 0 0-1.307H10.151a.653.653 0 1 0 0 1.307zm23.15 8.817h-26.6c-.6 0-1.085.292-1.085.653s.486.653 1.085.653h26.6c.6 0 1.085-.292 1.085-.653s-.486-.653-1.085-.653zm0 0"/></svg>