<svg xmlns="http://www.w3.org/2000/svg" width="512" height="512"><path d="M256 0C114.609 0 0 114.609 0 256c0 141.391 114.609 256 256 256 141.391 0 256-114.609 256-256C512 114.609 397.391 0 256 0zm0 472c-119.297 0-216-96.703-216-216S136.703 40 256 40s216 96.703 216 216-96.703 216-216 216z" data-original="#000000" class="active-path" data-old_color="#000000" fill="#891225"/><path d="M336 256c0 44.188-35.812 80-80 80s-80-35.812-80-80 35.812-80 80-80 80 35.812 80 80z" data-original="#000000" class="active-path" data-old_color="#000000" fill="#891225"/></svg>