<svg xmlns="http://www.w3.org/2000/svg" viewBox="0 0 40 37.143"><defs><style>.a{fill:#891225;}</style></defs><g transform="translate(0 -0.074)"><path class="a" d="M35.425,3.112H32.974v-2.1a.915.915,0,1,0-1.83,0v2.1H9.352v-2.1a.915.915,0,1,0-1.83,0v2.1H4.575A4.627,4.627,0,0,0,0,7.778V32.551a4.627,4.627,0,0,0,4.575,4.666h30.85A4.627,4.627,0,0,0,40,32.551V7.778a4.627,4.627,0,0,0-4.575-4.666ZM38.17,32.551a2.776,2.776,0,0,1-2.745,2.8H4.575a2.776,2.776,0,0,1-2.745-2.8V7.778a2.776,2.776,0,0,1,2.745-2.8H7.522v1.6a.915.915,0,1,0,1.83,0v-1.6H31.144v1.6a.915.915,0,1,0,1.83,0v-1.6h2.451a2.776,2.776,0,0,1,2.745,2.8Zm0,0" transform="translate(0 0)"/><path class="a" d="M86.595,154.108H97.3a.653.653,0,1,0,0-1.307H86.595a.653.653,0,1,0,0,1.307Zm0,0" transform="translate(-76.444 -138.247)"/><path class="a" d="M113.628,259.59h-26.6c-.6,0-1.085.292-1.085.653s.486.653,1.085.653h26.6c.6,0,1.085-.292,1.085-.653s-.486-.653-1.085-.653Zm0,0" transform="translate(-80.327 -234.912)"/></g></svg>